<svg width="443" height="480" viewBox="0 0 443 480" fill="none" xmlns="http://www.w3.org/2000/svg">
<g clip-path="url(#clip0_4096_5359)">
<g clip-path="url(#clip1_4096_5359)">
<line x1="0.5" x2="0.5" y2="480" stroke="#1F242F"/>
<line x1="32.5" x2="32.5" y2="480" stroke="#1F242F"/>
<line x1="64.5" x2="64.5" y2="480" stroke="#1F242F"/>
<line x1="96.5" x2="96.5" y2="480" stroke="#1F242F"/>
<line x1="128.5" x2="128.5" y2="480" stroke="#1F242F"/>
<line x1="160.5" x2="160.5" y2="480" stroke="#1F242F"/>
<line x1="192.5" x2="192.5" y2="480" stroke="#1F242F"/>
<line x1="224.5" x2="224.5" y2="480" stroke="#1F242F"/>
<line x1="256.5" x2="256.5" y2="480" stroke="#1F242F"/>
<line x1="288.5" x2="288.5" y2="480" stroke="#1F242F"/>
<line x1="320.5" x2="320.5" y2="480" stroke="#1F242F"/>
<line x1="352.5" x2="352.5" y2="480" stroke="#1F242F"/>
<line x1="384.5" x2="384.5" y2="480" stroke="#1F242F"/>
<line x1="416.5" x2="416.5" y2="480" stroke="#1F242F"/>
</g>
<rect x="0.5" y="0.5" width="479" height="479" stroke="#1F242F"/>
<g clip-path="url(#clip2_4096_5359)">
<line y1="31.5" x2="480" y2="31.5" stroke="#1F242F"/>
<line y1="63.5" x2="480" y2="63.5" stroke="#1F242F"/>
<line y1="95.5" x2="480" y2="95.5" stroke="#1F242F"/>
<line y1="127.5" x2="480" y2="127.5" stroke="#1F242F"/>
<line y1="159.5" x2="480" y2="159.5" stroke="#1F242F"/>
<line y1="191.5" x2="480" y2="191.5" stroke="#1F242F"/>
<line y1="223.5" x2="480" y2="223.5" stroke="#1F242F"/>
<line y1="255.5" x2="480" y2="255.5" stroke="#1F242F"/>
<line y1="287.5" x2="480" y2="287.5" stroke="#1F242F"/>
<line y1="319.5" x2="480" y2="319.5" stroke="#1F242F"/>
<line y1="351.5" x2="480" y2="351.5" stroke="#1F242F"/>
<line y1="383.5" x2="480" y2="383.5" stroke="#1F242F"/>
<line y1="415.5" x2="480" y2="415.5" stroke="#1F242F"/>
<line y1="447.5" x2="480" y2="447.5" stroke="#1F242F"/>
<line y1="479.5" x2="480" y2="479.5" stroke="#1F242F"/>
</g>
<rect x="0.5" y="0.5" width="479" height="479" stroke="#1F242F"/>
</g>
<defs>
<clipPath id="clip0_4096_5359">
<rect width="480" height="480" fill="white"/>
</clipPath>
<clipPath id="clip1_4096_5359">
<rect width="480" height="480" fill="white"/>
</clipPath>
<clipPath id="clip2_4096_5359">
<rect width="480" height="480" fill="white"/>
</clipPath>
</defs>
</svg>
