<svg width="32" height="33" viewBox="0 0 32 33" fill="none" xmlns="http://www.w3.org/2000/svg">
<rect y="0.5" width="32" height="32" rx="8" fill="url(#paint0_linear_7975_70197)"/>
<path d="M24.8309 13.6329L22.6252 14.4728C22.5344 14.5091 22.4435 14.4146 22.4799 14.3237L24.9399 8.34998C24.9762 8.25908 24.889 8.16819 24.7982 8.20091L20.1253 9.83704C20.0344 9.86976 19.9618 9.93884 19.9254 10.0261L16.7532 18.0286C16.7133 18.1304 16.8114 18.2322 16.9131 18.1922L18.8935 17.4651C19.0025 17.4251 19.1042 17.545 19.0461 17.6468L16.1392 22.588C16.0774 22.697 15.9211 22.697 15.8594 22.588L12.9524 17.6468C12.8943 17.545 12.9924 17.4251 13.1051 17.4651L15.0854 18.1922C15.1871 18.2286 15.2853 18.1304 15.2453 18.0286L12.0658 10.0297C12.0295 9.93884 11.9568 9.86976 11.866 9.84068L7.19311 8.20454C7.10227 8.17182 7.01506 8.26272 7.0514 8.35361L9.51138 14.3273C9.54772 14.4182 9.46051 14.5127 9.36604 14.4764L7.17131 13.6329C7.05867 13.5892 6.95692 13.7129 7.0187 13.8147L13.5484 24.6313C13.6138 24.7368 13.7301 24.8058 13.8536 24.8058H18.134C18.2576 24.8058 18.3739 24.7404 18.4393 24.635L24.9798 13.8147C25.0452 13.7129 24.9399 13.5929 24.8309 13.6329Z" fill="white"/>
<defs>
<linearGradient id="paint0_linear_7975_70197" x1="12.9148" y1="0.499999" x2="33.9725" y2="5.78803" gradientUnits="userSpaceOnUse">
<stop stop-color="#7735E8"/>
<stop offset="0.854167" stop-color="#BA2DF0"/>
<stop offset="1" stop-color="#C62CF1"/>
</linearGradient>
</defs>
</svg>
